<svg
    xmlns="http://www.w3.org/2000/svg"
    width="20"
    height="20"
    viewBox="0 0 20 20"
    fill="none"
  >
    <path
      d="M7.50033 16.6667H12.5003V18.3334H7.50033V16.6667ZM14.0887 11.4267C14.947 10.4217 15.8337 9.38258 15.8337 7.50008C15.8337 4.28425 13.2162 1.66675 10.0003 1.66675C6.78449 1.66675 4.16699 4.28425 4.16699 7.50008C4.16699 9.40425 5.05616 10.4401 5.91783 11.4417C6.21616 11.7901 6.52533 12.1509 6.82116 12.5659C6.94116 12.7376 7.13783 13.3959 7.31366 14.1667H6.65366V15.8334H13.347V14.1667H12.6887C12.8662 13.3942 13.0637 12.7342 13.1828 12.5626C13.4762 12.1434 13.7878 11.7792 14.0887 11.4267Z"
      fill="#CC9647"
    />
  </svg>